<?xml version="1.0" encoding="iso-8859-1"?>
<!-- Generator: Adobe Illustrator 21.0.0, SVG Export Plug-In . SVG Version: 6.00 Build 0)  -->
<svg version="1.1" id="Layer_1" xmlns="http://www.w3.org/2000/svg" xmlns:xlink="http://www.w3.org/1999/xlink" x="0px" y="0px"
	 viewBox="0 0 600 600" style="enable-background:new 0 0 600 600;" xml:space="preserve">
<g>
	<path style="fill:#FFFFFF;" d="M252.357,249.82c0-22.933-15.626-22.933-15.626-22.933h-64.226v49.294h60.27
		C243.147,276.181,252.357,272.829,252.357,249.82L252.357,249.82z M252.357,249.82"/>
	<path style="fill:#FFFFFF;" d="M401.204,276.181c-34.03,0-38.801,33.97-38.801,33.97h72.484
		C434.887,310.151,435.355,276.181,401.204,276.181L401.204,276.181z M401.204,276.181"/>
	<path style="fill:#FFFFFF;" d="M236.731,310.151h-64.226v59.047h56.903c0.951,0,2.416,0,4.077,0
		c9.134-0.241,26.542-2.898,26.542-28.73C260.026,309.864,236.731,310.151,236.731,310.151L236.731,310.151z M236.731,310.151"/>
	<path style="fill:#FFFFFF;" d="M299.823,0C134.519,0,0,134.535,0,299.839c0,165.364,134.519,299.884,299.823,299.884
		c165.364,0,299.9-134.52,299.9-299.884C599.723,134.535,465.188,0,299.823,0L299.823,0z M352.907,200.693h91.054v27.191h-91.054
		V200.693z M306.844,343.244c0,67.351-70.114,65.162-70.114,65.162H121.898V187.663h114.832c34.906,0,62.504,19.28,62.504,58.805
		c0,39.451-33.668,41.987-33.668,41.987C309.909,288.455,306.844,343.244,306.844,343.244L306.844,343.244z M477.221,339.636
		h-114.41c0,40.99,38.861,38.393,38.861,38.393c36.687,0,35.389-23.703,35.389-23.703h38.861c0,62.987-75.533,58.684-75.533,58.684
		c-90.586,0-84.819-84.396-84.819-84.396s-0.06-84.803,84.819-84.803C489.737,243.811,477.221,339.636,477.221,339.636
		L477.221,339.636z M477.221,339.636"/>
</g>
</svg>
