<?xml version="1.0" encoding="iso-8859-1"?>
<!-- Generator: Adobe Illustrator 21.0.0, SVG Export Plug-In . SVG Version: 6.00 Build 0)  -->
<svg version="1.1" id="Layer_1" xmlns="http://www.w3.org/2000/svg" xmlns:xlink="http://www.w3.org/1999/xlink" x="0px" y="0px"
	 viewBox="0 0 600 600" style="enable-background:new 0 0 600 600;" xml:space="preserve">
<g>
	<path style="fill:#666666;" d="M589.027,221.082c0-74.373-60.493-134.886-134.849-134.886c-3.232,0-6.494,0.125-9.766,0.365
		C412.417,38.454,358.207,9.078,299.999,9.078c-58.216,0-112.415,29.386-144.412,77.483c-3.281-0.24-6.543-0.365-9.768-0.365
		c-74.353,0-134.846,60.513-134.846,134.886c0,67.859,50.353,124.145,115.65,133.5v186.416c0,27.53,22.382,49.924,49.912,49.924
		h246.929c27.522,0,49.914-22.394,49.914-49.924V354.582C538.672,345.227,589.027,288.941,589.027,221.082L589.027,221.082z
		 M423.463,552.514H176.534c-6.237,0-11.517-5.27-11.517-11.517V354.601c18.807-2.669,36.666-9.252,52.774-19.495
		c24.708,13.363,52.811,20.861,82.207,20.861c29.386,0,57.491-7.498,82.199-20.861c16.108,10.243,33.977,16.826,52.782,19.495
		v186.396C434.98,547.245,429.7,552.514,423.463,552.514L423.463,552.514z M454.179,317.573c-12.922,0-25.416-2.527-37.029-7.376
		c23.369-21.417,41.037-49.263,49.904-81.262c2.831-10.216-3.157-20.795-13.383-23.636c-10.216-2.831-20.795,3.166-23.626,13.383
		c-16.138,58.225-69.61,98.89-130.047,98.89c-60.434,0-113.916-40.665-130.044-98.89c-2.831-10.226-13.412-16.214-23.636-13.383
		c-10.216,2.831-16.206,13.419-13.373,23.636c8.867,31.999,26.526,59.844,49.895,81.262c-11.615,4.849-24.106,7.376-37.021,7.376
		c-53.183,0-96.449-43.285-96.449-96.491c0-53.203,43.266-96.488,96.449-96.488c5.378,0,10.907,0.487,16.444,1.435
		c7.998,1.357,16.013-2.449,19.982-9.528c23.915-42.578,69.037-69.025,117.754-69.025c48.719,0,93.831,26.447,117.744,69.025
		c3.979,7.089,11.987,10.885,19.985,9.528c5.537-0.948,11.076-1.435,16.451-1.435c53.176,0,96.442,43.285,96.442,96.488
		C550.62,274.287,507.355,317.573,454.179,317.573L454.179,317.573z M454.179,317.573"/>
</g>
</svg>
