<?xml version="1.0" encoding="iso-8859-1"?>
<!-- Generator: Adobe Illustrator 21.0.0, SVG Export Plug-In . SVG Version: 6.00 Build 0)  -->
<svg version="1.1" id="Layer_1" xmlns="http://www.w3.org/2000/svg" xmlns:xlink="http://www.w3.org/1999/xlink" x="0px" y="0px"
	 viewBox="0 0 600 600" style="enable-background:new 0 0 600 600;" xml:space="preserve">
<g>
	<path style="fill:#FFFFFF;" d="M299.823,0C134.519,0,0,134.535,0,299.839c0,165.364,134.519,299.884,299.823,299.884
		c165.364,0,299.9-134.52,299.9-299.884C599.723,134.535,465.188,0,299.823,0L299.823,0z M374.436,310.392h-48.781v173.925h-72.303
		V310.392h-34.377v-61.447h34.377v-39.752c0-28.429,13.513-72.952,72.952-72.952l53.551,0.227v59.636h-38.862
		c-6.371,0-15.339,3.186-15.339,16.743v36.159h55.091L374.436,310.392z M374.436,310.392"/>
</g>
</svg>
