<?xml version="1.0" encoding="iso-8859-1"?>
<!-- Generator: Adobe Illustrator 21.0.0, SVG Export Plug-In . SVG Version: 6.00 Build 0)  -->
<svg version="1.1" id="Layer_1" xmlns="http://www.w3.org/2000/svg" xmlns:xlink="http://www.w3.org/1999/xlink" x="0px" y="0px"
	 viewBox="0 0 600 600" style="enable-background:new 0 0 600 600;" xml:space="preserve">
<g>
	<path style="fill:#FFFFFF;" d="M299.823,359.867c33.094,0,60.044-26.889,60.044-60.028c0-13.045-4.243-25.122-11.323-34.981
		c-10.915-15.098-28.655-25.002-48.72-25.002c-19.989,0-37.744,9.844-48.644,25.002c-7.142,9.859-11.323,21.937-11.384,34.981
		C239.796,332.978,266.745,359.867,299.823,359.867L299.823,359.867z M299.823,359.867"/>
	<path style="fill:#FFFFFF;" d="M430.932,226.404V168.61h-7.549l-50.305,0.181l0.241,57.794L430.932,226.404z M430.932,226.404"/>
	<path style="fill:#FFFFFF;" d="M299.823,0C134.519,0,0,134.535,0,299.839c0,165.364,134.519,299.884,299.823,299.884
		c165.364,0,299.9-134.52,299.9-299.884C599.723,134.535,465.188,0,299.823,0L299.823,0z M470.381,264.858v139.653
		c0,36.34-29.546,65.886-65.931,65.886H195.212c-36.34,0-65.886-29.546-65.886-65.886V195.273c0-36.385,29.546-65.931,65.886-65.931
		H404.45c36.385,0,65.931,29.546,65.931,65.931V264.858z M470.381,264.858"/>
	<path style="fill:#FFFFFF;" d="M393.127,299.839c0,51.422-41.806,93.288-93.304,93.288c-51.422,0-93.228-41.866-93.228-93.288
		c0-12.335,2.476-24.187,6.839-34.981H162.54v139.653c0,18.057,14.615,32.626,32.672,32.626H404.45
		c18.041,0,32.671-14.569,32.671-32.626V264.858h-50.894C390.59,275.652,393.127,287.504,393.127,299.839L393.127,299.839z
		 M393.127,299.839"/>
</g>
</svg>
