<?xml version="1.0" encoding="iso-8859-1"?>
<!-- Generator: Adobe Illustrator 21.0.0, SVG Export Plug-In . SVG Version: 6.00 Build 0)  -->
<svg version="1.1" id="Layer_1" xmlns="http://www.w3.org/2000/svg" xmlns:xlink="http://www.w3.org/1999/xlink" x="0px" y="0px"
	 viewBox="0 0 600 600" style="enable-background:new 0 0 600 600;" xml:space="preserve">
<g>
	<path style="fill:#FFFFFF;" d="M156.642,322.239h23.809v128.807h22.511V322.239h24.223v-21.076h-70.544V322.239z M156.642,322.239"
		/>
	<path style="fill:#FFFFFF;" d="M346.997,337.981c-7.437,0-14.391,4.076-20.93,12.112v-48.93h-20.232v149.883h20.232v-10.83
		c6.777,8.335,13.731,12.357,20.93,12.357c8.036,0,13.463-4.26,16.157-12.564c1.351-4.736,2.042-12.173,2.042-22.489v-44.463
		c0-10.577-0.691-17.953-2.042-22.45C360.46,342.241,355.033,337.981,346.997,337.981L346.997,337.981z M344.956,419.109
		c0,10.078-2.94,15.051-8.781,15.051c-3.331,0-6.716-1.589-10.108-4.973v-68.057c3.392-3.331,6.777-4.92,10.108-4.92
		c5.818,0,8.781,5.158,8.781,15.236V419.109z M344.956,419.109"/>
	<path style="fill:#FFFFFF;" d="M268.087,424.688c-4.497,6.355-8.727,9.471-12.802,9.471c-2.702,0-4.229-1.589-4.743-4.735
		c-0.177-0.66-0.177-3.116-0.177-7.852v-82.21h-20.24v88.297c0,7.882,0.691,13.216,1.804,16.609
		c2.034,5.634,6.532,8.305,13.04,8.305c7.437,0,15.082-4.498,23.118-13.731v12.204h20.263V339.362h-20.263V424.688z
		 M268.087,424.688"/>
	<path style="fill:#FFFFFF;" d="M285.472,236.191c6.57,0,9.748-5.211,9.748-15.681v-47.456c0-10.431-3.178-15.65-9.748-15.65
		c-6.593,0-9.77,5.219-9.77,15.65v47.456C275.701,230.98,278.879,236.191,285.472,236.191L285.472,236.191z M285.472,236.191"/>
	<path style="fill:#FFFFFF;" d="M299.119,0C133.348,0-1,134.348-1,300.119c0,165.732,134.348,300.08,300.119,300.08
		c165.732,0,300.08-134.348,300.08-300.08C599.199,134.348,464.851,0,299.119,0L299.119,0z M332.483,140.373h20.386v83.077
		c0,4.797,0,7.291,0.246,7.944c0.445,3.185,2.065,4.797,4.797,4.797c4.106,0,8.389-3.178,12.917-9.563v-86.255h20.447v112.849
		h-20.447v-12.319c-8.151,9.349-15.888,13.877-23.356,13.877c-6.593,0-11.122-2.694-13.186-8.389
		c-1.113-3.423-1.804-8.819-1.804-16.794V140.373z M255.255,177.161c0-12.05,2.034-20.869,6.386-26.595
		c5.665-7.706,13.639-11.574,23.832-11.574c10.223,0,18.198,3.868,23.84,11.574c4.283,5.695,6.355,14.545,6.355,26.595v39.512
		c0,11.997-2.072,20.9-6.355,26.541c-5.641,7.698-13.616,11.567-23.84,11.567c-10.193,0-18.167-3.868-23.832-11.567
		c-4.352-5.641-6.386-14.545-6.386-26.541V177.161z M200.568,101.789l16.095,59.453l15.474-59.453h22.934l-27.278,90.092v61.341
		H205.12v-61.341c-2.065-10.853-6.593-26.771-13.877-47.909c-4.766-14.061-9.748-28.153-14.545-42.183H200.568z M460.653,460.877
		c-4.106,17.807-18.643,30.939-36.181,32.919c-41.531,4.621-83.53,4.644-125.383,4.621c-41.83,0.023-83.86,0-125.383-4.621
		c-17.538-1.98-32.083-15.112-36.189-32.919c-5.818-25.336-5.818-53.036-5.818-79.124c0-26.111,0.061-53.788,5.91-79.148
		c4.076-17.814,18.643-30.939,36.158-32.919c41.523-4.62,83.553-4.651,125.376-4.62c41.861-0.031,83.86,0,125.383,4.62
		c17.546,1.98,32.113,15.105,36.22,32.919c5.818,25.359,5.756,53.036,5.756,79.148C466.501,407.841,466.501,435.541,460.653,460.877
		L460.653,460.877z M460.653,460.877"/>
	<path style="fill:#FFFFFF;" d="M411.423,337.981c-10.338,0-18.375,3.807-24.223,11.452c-4.283,5.672-6.232,14.391-6.232,26.326
		v39.129c0,11.843,2.187,20.654,6.47,26.234c5.848,7.645,13.915,11.452,24.499,11.452c10.584,0,18.858-3.991,24.461-12.112
		c2.464-3.569,4.053-7.645,4.736-12.111c0.184-2.042,0.422-6.509,0.422-13.048v-2.932h-20.623c0,8.09-0.269,12.588-0.453,13.7
		c-1.167,5.396-4.045,8.09-9.057,8.09c-6.923,0-10.338-5.15-10.338-15.466v-19.817h40.472v-23.118
		c0-11.935-2.011-20.654-6.263-26.326C429.652,341.788,421.593,337.981,411.423,337.981L411.423,337.981z M421.348,382.022h-20.232
		v-10.308c0-10.346,3.385-15.504,10.131-15.504c6.716,0,10.101,5.158,10.101,15.504V382.022z M421.348,382.022"/>
</g>
</svg>
