<?xml version="1.0" encoding="iso-8859-1"?>
<!-- Generator: Adobe Illustrator 21.0.0, SVG Export Plug-In . SVG Version: 6.00 Build 0)  -->
<svg version="1.1" id="Layer_1" xmlns="http://www.w3.org/2000/svg" xmlns:xlink="http://www.w3.org/1999/xlink" x="0px" y="0px"
	 viewBox="0 0 600 600" style="enable-background:new 0 0 600 600;" xml:space="preserve">
<g>
	<path style="fill:#FFFFFF;" d="M299.823,0C134.519,0,0,134.535,0,299.839c0,165.364,134.519,299.884,299.823,299.884
		c165.364,0,299.9-134.52,299.9-299.884C599.723,134.535,465.188,0,299.823,0L299.823,0z M433.649,231.25
		c0.106,2.944,0.166,5.949,0.166,8.968c0,91.175-69.404,196.315-196.375,196.315c-38.982,0-75.262-11.368-105.804-31.011
		c5.42,0.65,10.9,0.997,16.456,0.997c32.37,0,62.096-11.021,85.739-29.546c-30.195-0.589-55.665-20.517-64.452-47.95
		c4.182,0.83,8.485,1.238,12.969,1.238c6.251,0,12.381-0.815,18.163-2.416c-31.554-6.311-55.378-34.196-55.378-67.637
		c0-0.302,0-0.589,0.06-0.891c9.255,5.194,19.944,8.258,31.267,8.606c-18.525-12.32-30.739-33.487-30.739-57.431
		c0-12.622,3.427-24.473,9.331-34.68c34.015,41.76,84.924,69.238,142.235,72.121c-1.178-5.073-1.766-10.312-1.766-15.747
		c0-38.091,30.905-68.996,69.011-68.996c19.869,0,37.789,8.38,50.35,21.756c15.747-3.065,30.558-8.786,43.889-16.743
		c-5.193,16.155-16.109,29.667-30.377,38.212c13.981-1.646,27.311-5.36,39.631-10.84
		C458.832,209.374,447.086,221.512,433.649,231.25L433.649,231.25z M433.649,231.25"/>
</g>
</svg>
